<?xml version="1.0" encoding="UTF-8"?>
<svg width="512" height="512" viewBox="0 0 512 512" fill="none" xmlns="http://www.w3.org/2000/svg">
  <rect width="512" height="512" rx="128" fill="url(#gradient)"/>
  <path d="M256 96C238.33 96 224 110.33 224 128V144H192C174.33 144 160 158.33 160 176V368C160 385.67 174.33 400 192 400H320C337.67 400 352 385.67 352 368V176C352 158.33 337.67 144 320 144H288V128C288 110.33 273.67 96 256 96ZM256 128C260.42 128 264 131.58 264 136V144H248V136C248 131.58 251.58 128 256 128ZM192 176H320V368H192V176ZM256 208C247.16 208 240 215.16 240 224C240 232.84 247.16 240 256 240C264.84 240 272 232.84 272 224C272 215.16 264.84 208 256 208ZM224 272V304H288V272H224Z" fill="white"/>
  <defs>
    <linearGradient id="gradient" x1="0" y1="0" x2="512" y2="512" gradientUnits="userSpaceOnUse">
      <stop offset="0%" style="stop-color:#EC4899"/>
      <stop offset="100%" style="stop-color:#8B5CF6"/>
    </linearGradient>
  </defs>
</svg>